<?xml version="1.0" encoding="utf-8"?>
<!-- Generator: Adobe Illustrator 23.0.3, SVG Export Plug-In . SVG Version: 6.00 Build 0)  -->
<svg version="1.1" id="Layer_1" xmlns="http://www.w3.org/2000/svg" xmlns:xlink="http://www.w3.org/1999/xlink" x="0px" y="0px"
	 viewBox="0 0 2710.6 1218.7" style="enable-background:new 0 0 2710.6 1218.7;" xml:space="preserve">
<style type="text/css">
	.st0{fill:#FFFFFF;}
</style>
<path class="st0" d="M2634.8,699.1c0,0,27.2-28.2,56.7-61.1c29-34.6,18.3-42.4,10.7-62.4c-7.6-20.1-15.2-10.5-26.3-11.4
	c-11.2-0.9-8,4.6-4.9,6.4c3.1,1.8-1.8,3.7-2.2,8.7c-0.4,5-1.3,6.4,3.6,14.1c4.9,7.7,4,8.7,1.8,10.9c-2.2,2.3-10.7,15-12.9,21.9
	c-2.2,6.8-9.8,14.1-17,16.9c-7.1,2.7-4.9,0.9-7.1-9.1c-2.2-10-2.7-25.1-8-45.1s-23.2-18.2-41.5-34.2c10.7-10.9-1.8-25.5-1.8-25.5
	s11.2-19.6,14.7-23.7c3.6-4.1,7.1-4.1,10.7-8.7c3.6-4.6-4.5-2.3,0.9-16.9c5.4-14.6,6.7-17.8,5.4-32.4c-1.3-14.6-18.8-25.1-28.6-29.6
	c-9.8-4.6-16.5-1.8-23.7,0c-7.2,1.8-10.3,4.1-13.4,8.2c-3.1,4.1-20.1,11.9-15.2,20.1c4.9,8.2,3.1,10,3.1,15c0,5-4,6.4-5.4,16.4
	c-1.3,10,6.7,16,6.7,16l-2.7,17.3c0,0-1.8,0.9-7.6,10.5c-15.5-1.8-27.6,0.7-36.4,6.7c-10.3-9.9-18.8-10.7-18.8-10.7
	s-6.6-0.9-10.2-6.3c-3.5-5.4,2.7-6.8,2.7-17.2c0-10.4-3.1-23-4.4-24.8c-1.3-1.8,3.1-23.9-1.8-65.9c-4.9-42-42.9-43.3-54.4-40.6
	c-11.5,2.7-15.5,3.6-25.2,5c-9.7,1.4-23,23-23.9,43.3c-0.9,20.3-4.9,53.7-5.3,68.2c-0.4,14.4-4,14.9-23.9,20.3
	c-5.9,1.6-10.8,3.9-15.2,7.1c-8.4-12.3-14.4-20.8-14.4-20.8c-7.3-22.5-36.7-22.5-56.5-25.5c-16.1-5.2-18.3-20.2-18.3-20.2l-1.5-2.2
	c14.7-4.5,10.3-30,18.3-40.4c11-0.7,6.6-19.5,6.6-19.5s-1.5-12.7-2.2-36.7c-0.7-24-24.2-34.5-36.7-36.7c-12.5-2.3-36,5.2-44.8,12.7
	c-8.8,7.5-10.3,20.2-13.2,33.7c-2.9,13.5,8.8,18,9.6,20.2c0.6,1.9,0.2,9.9-0.8,17.7c-25.6-76.2-75-52-83.8-53.8
	c-9.3-1.9-21-7.6-24.1-15.1c-3.1-7.6,4.3-34,4.3-34s13.6-2.5,17.3-14.5c3.7-12-8-7.6-8-7.6l3.7-4.4v-20.8c0-9.5-1.9-34-19.1-52.9
	c-17.3-18.9-59.9-6.9-74.1,7.6c-14.2,14.5-11.7,19.5-11.1,25.8c0.6,6.3-1.8,3.1-5.6,18.3c-3.7,15.1,11.7,12,11.7,12s0,7.6,0,26.5
	c0,18.9,11.1,13.2,11.1,13.2s1.9,4.4,1.9,17.6c0,13.2,8,8.2,12.3,21.4c4.3,13.2,0.6,14.5-6.2,30.9c-3.6,8.7-9.7,11.5-16.5,14.1
	c-8.9-68.3-59.1-53.4-59.1-53.4s3-37,3-51.7c0-14.7-12.1-49.4-25.7-83.4c-13.6-34-65-10.8-76.4-0.8c-11.3,10-37.8,58.6-49.1,79.5
	c-11.1,20.3-14.2,56-14.4,57.8c-2.1-10.8-4.2-23.9-6.3-40.9c-7.9-66-47.2-78.5-59.5-81.2c-12.2-2.7-12.2-13.4-26.2-25
	c-14-11.6-35.8-6.3-42-6.3c-6.1,0-2.6-17-1.8-27.7c0.9-10.7,3.5-19.6,14.9-19.6c11.4,0,7.9-5.4,7.9-15.2c0-9.8,0-33-0.9-39.3
	c-0.9-6.2,3.5-17.8-15.7-49.1c-19.2-31.2-72.6-14.3-97,10.7c-24.5,25-8.7,56.2-7.9,77.6c0.9,21.4,1.7,12.5,8.7,22.3
	c7,9.8,18.4,27.7,18.4,27.7l0.9,12.5c0,0-12.2,7.1-23.6,10.7c-11.4,3.6-10.5,10.7-18.4,10.7c-7.9,0-16.6,4.5-26.2,18.7
	c-21.8,7.6-32.7,31.1-37.6,55.8c-3.4-1.3-5.9-2-5.9-2s5.3-3.6,8.8-12c-0.6-7.8-49.8-26.9-49.8-26.9l-1.8-3.6
	c0,0,15.2-11.4,21.7-24.5c6.4-13.2,4.7-23.3,4.7-23.3s4.7-1.8,8.8-19.1c5.3-20.9-5.3-19.1-5.3-19.1s0-6.6-1.2-31.1
	c-1.2-24.5-26.4-55-69.7-40.6c-43.3,14.3-39.8,50.2-43.9,67.5c-4.1,17.3-1.2,24.5-1.2,32.9c0,8.4-8.8,42.4-17,53.8
	c-6.5,9.1-34,17.4-47.5,21.6c-4.2-3.9-9-7.8-14.8-11.4c-38.6-17.4-90.6-27.8-90.6-27.8l-4.4-23.3c0,0,12.7,2.6,15.8-9
	c3.2-11.6,5.1-20,3.8-23.3c-1.3-3.2-5.1-2.6-3.8-7.8c1.3-5.2,2.5-13.6,3.2-20c0.6-6.5,1.9-9.7,1.3-13.6c-0.6-3.9-5.1-9.7-3.2-14.2
	c1.9-4.5-0.6-14.9-7-22c-6.3-7.1-20.3-16.8-25.3-23.9c-5.1-7.1-15.8-11.6-21.5-8.4c-5.7,3.2-10.1,5.2-20.3,4.5
	c-10.1-0.6-20.9,7.8-24.7,10.3c-3.8,2.6-22.2,3.2-24.1,12.9c-1.9,9.7-7,18.7-8.9,24.6c-1.9,5.8-8.2,28.4-5.1,30.4
	c3.2,1.9,8.2,16.2,8.2,16.2s-7.6,8.4-3.2,14.2c4.4,5.8,6.3,6.5,4.4,12.3c-1.9,5.8-4.4,13.6-0.6,14.2c3.8,0.6,13.9,4.5,15.8,12.3
	c1.9,7.8,13.9,4.5,16.5,4.5c2.5,0,3.8,23.3,3.8,23.3s-3.2,5.8-14.6,11c-11.4,5.2-42.4,18.7-50,29.1c-4.6,6.2-15.4,10.4-22.7,24.9
	c-1-1.8-2.1-3.6-3.1-5.4c-23-39.6-89.7-49.7-89.7-49.7l-1.1-0.6c-15.3,0-39.4-21.8-38.8-32.9c0.5-11.2-1.6-25.7-1.6-25.7
	s2.2-1.1,8.2-17.3c6-16.2-0.6-26.8-0.6-26.8s3.3-9.5-14.2-40.2c-17.5-30.7-47-48-81-26.2c-33.9,21.8-32.3,51.9-21.9,98.8
	c10.4,46.9,21.3,40.8,30.1,48c8.8,7.3,5.5,16.2,8.2,25.1c2.7,8.9-20.2,22.3-34.5,26.8c-12.6,4-32.6,22.9-43.8,37.3
	c-1-0.4-2-0.7-3-0.7c-6.9,0-13.7,4-24.5-4c-10.8-8,0-17-1-22c-1-5,1-25,6.9-31c5.9-6,4.9-21,4.9-29c0-8,2-10,3.9-21
	c2-11-4.9-9-10.8-13c-5.9-4,3.9-7,4.9-16c1-9-2.9-12-14.7-18c-11.8-6-3.9-2-3.9-11c0-9-7.8-9-14.7-9c-6.9,0-16.7-9-20.6-13
	c-3.9-4-18.6,0-26.5,3c-7.8,3-11.7,12-26.4,22c-14.7,10-10.8,21-11.8,49c-1,28,11.8,45,16.7,67c4.9,22,7.8,27,10.8,39
	c2.9,12-21.6,11-45.1,19c-23.5,8-46,64-50,83c-3.9,19,11.8,24,11.8,24s-0.7,23.4-3.1,50.3c0.5-15.8-14-25.9-11.9-25.9
	c2.4,0,11.9,2.4,12.7-6.9c0.8-9.3-19.8-56.2-25.7-57.4c-5.9-1.2-32.1-11.7-32.1-11.7s9.1-9.7,6.3-22.6c-2.8-12.9-7.5-21-7.5-21
	s6.3,5.7,11.5,10.9c5.1,5.3,10.3-1.6,10.3-1.6s-1.6-1.2-4.4-1.2c-2.8,0-10.7-7.7-10.7-7.7s10.3-1.6,22.2,5.2c11.9,6.9,0.8,6.9,0,8.9
	c-0.8,2,5.5,8.9,6.7-5.7c1.2-14.6-13.1-14.5-17.4-16.6c-4.4-2,2.4-5.7,6.7-1.6c4.4,4,9.5,1.6,12.3,0.8c2.8-0.8,8.7-0.4,13.5,3.2
	c2.8-8.9-13.1-22.2-13.1-22.2s6.3,3.6,9.5-9.3c3.2-13.7-23.4-13.7-23.4-13.7s6.7,3.2,9.5,3.6c2.8,0.4,1.6,4-2.8,8.9
	c-4.4,4.9-16.2-2-20.6-18.2c-4.4-16.2-9.1-35.6-19.4-50.5c-10.3-15-31.3-28.3-58.2-20.2c-26.9,8.1-32.9,29.5-33.3,42.8
	c-0.4,13.3-5.6,50.1-5.6,58.6c0,8.5-2.8,12.9-15.1,34.4c-12.3,21.4,3.6,22.2,3.6,11.7c0-10.5,20.2-9.3,20.2-9.3s3.2,11.3,0.4,16.6
	c-2.8,5.3-41.2,17.8-44,21c-2.8,3.2-22.6,21-26.9,35.6c-4.4,14.5-17.4,39.6-17.4,39.6l15.9,3.6c0,0,1.2,15.4,1.2,22.6
	c0,7.3-2.4,59-5.5,72.8c-3.2,13.7-6.3,62.3-8.3,89.7c-2,27.5-0.8,114.4-1.2,131.4c-0.4,17,42,36,42,36v7.7l11.1,3.6
	c0,0,6.7,87.7,5.9,94.6c-0.8,6.9-1.6,24.2-14.7,38c-5.6,5.9-10.6,15.8-14.8,27.7c-4-34.6-10.1-77.7-18.6-104.6
	c-15.9-50.8-25.4-81.6-26.5-88.1c-1.1-6.5,5.3-34.6,7.9-57.8c2.6-23.2,1.6-45.9-2.1-60.5c-3.7-14.6-6.9-14.6-0.5-28.6
	c6.4-14,10.6-52.4,6.4-81.6c-4.2-29.2-42.4-34.6-51.9-44.3c-9.5-9.7-10.1-18.9-11.6-25.4c-1.6-6.5,13.8-26.5,16.4-34.6
	c2.7-8.1,1.1-40-2.1-47.6c-3.2-7.6-16.9-24.3-33.9-25.9c-16.9-1.6-37.6,4.9-40.2,12.4c-2.6,7.6-6.9,17.3-9.5,30.3
	c-2.6,13-2.1,50.8-2.1,50.8c0,2.7-11.7,6-17.5,7.6c-5.8,1.6-8.5,3.8-13.2,8.1c-4.8,4.3-4.2,3.8-19.6,24.3
	c-15.3,20.5,2.7,31.9,2.7,31.9s-1.6,7.6-6.4,32.4c-4.8,24.9-5.3,73.5-2.1,92.4c3.2,18.9,18.5,47,18.5,47s-5.3,36.2-7.9,45.4
	c-2.6,9.2-19.1,125.4-21.7,151.3C38.1,924.2,15.4,1035,15.4,1035s33.4,7.6,36,8.6c2.6,1.1-1.6,8.6-2.1,11.9
	c-0.5,3.2-4.2,7.6-4.8,15.1c-0.5,7.6-2.1,2.7-10.1,9.7c-7.9,7-11.6,21.1-16.4,28.6c-4.8,7.6-7.4,21.1-15.9,46.5
	c-8.5,25.4,10.6,20.5,15.9,14.1c5.3-6.5,15.9-9.7,21.7-21.1c5.8-11.3,25.4-33.5,32.3-47c6.9-13.5,39.7-50.3,39.7-50.3l53.5,4.9
	c0,0,1.6,19.4,1.6,27.5c0,8.1-1.1,28.1-4.2,35.1c-3.2,7-4.8,11.9-4.8,18.9c0,7-12.2,38.4-15.9,54.6c-3.7,16.2-11.1,32.4,19.6,24.3
	c30.7-8.1,28.1-38.4,28.6-43.2c0.5-4.9,5.3-6.5,10.1-10.8c4.8-4.3-1.1-6.5-3.2-14.6c-2.1-8.1,4.2-28.1,7.9-55.7
	c3.7-27.6,14.8-54,14.8-54s14.8-4.3,27.5-13.5c5.3-3.9,12.3-5.6,18.5-6.4c-1.6,31.1,6.8,64.3,6.4,77.8c-0.4,13.7-5.2,30.3-5.5,44.5
	c-0.4,14.1,2.4,25.5,3.6,45.3c1.2,19.8,40.4,36.8,59,31.9c18.6-4.8,4-22.6-6.3-46.5c-10.3-23.9-14.7-45.3-14.7-67.1
	c0-21.8,11.5-49.3,19.4-74c7.9-24.7,14.7-53.4,25.7-76c11.1-22.6,17.4-31.5,17.4-43.7c0-12.1,16.2-43.7,16.2-43.7s-4.8,39.2-4,45.7
	c0.8,6.5-6,27.9-8.3,50.5c-2.4,22.6,7.1,78,11.5,97.8c4.4,19.8,0.4,45.3-2.4,53.4c-2.8,8.1-6.7,34,0,42.8c6.7,8.9,8.3,17.4,8.3,17.4
	s17-0.4,20.2-0.4c3.2,0,12.3,6.9,19,19.8c6.7,12.9,42.4,13.7,48.7,9.3c6.3-4.4-2.8-20.6-8.3-27.9c-5.6-7.3-20.2-15.8-28.5-27.5
	c-8.3-11.7-15.8-37.6-15.5-44.1c0.4-6.5-0.4-46.1,7.5-91.4c7.9-45.3,0.8-91,0.8-91s4-21,4.8-33.9c0.8-12.9,5.1-11.3,12.7-38.4
	c7.5-27.1,19-64.3,19-64.3l6.3-4.4l-0.8-7.7l4,4c0,0,7.9,0.4,9.1,0.4c1.2,0,19.8,1.2,25.7-11.7c0.8-1.7,1.4-3.5,1.9-5.4
	c1.6,0.4,2.5,0.6,2.5,0.6s1,24,3.9,36c2.9,12,7.8,25-1,74c-8.8,49-11.8,141-11.8,141s7.8,56,7.8,86c0,30-8.8,30-13.7,63
	c-4.9,33,41.1,51,57.8,45c16.7-6,12.7-26,0-54c-12.7-28,2-108,3.9-163c2-55,12.7-71,17.6-106c4.9-35,5.9-124,5.9-124l15.7,3l10.8,1
	c0,0-2.9,71-2.9,101c0,30,22.5,57,22.5,94c0,37,10.8,120,2,165c-8.8,45-27.4,33-55.8,65c-28.4,32,24.5,33,48,30
	c23.5-3,45.1-22,49-29c3.9-7,25.5-30,30.4-41c4.9-11-16.6-26-16.6-26s-7.8-14-7.8-22c0-8,7.8-82,9.8-145c2-63-13.7-97-12.7-122
	c0.7-16.8,3.5-45.7,5.3-62.9c1.1,21.2,2.4,47.7,2.4,57c0,15.1,7.7,40.2,18.6,86c10.9,45.8,9.8,60.3,8.7,93.8
	c-1.1,33.5,16.4,21.8,22.4,23.4c6,1.7-4.4,5-9.3,12.8c-4.9,7.8,13.7,13.4,13.7,13.4s1.1,15.1,7.1,22.3c6,7.3,17,8.9,21.3,5.6
	c4.4-3.4,2.7,2.8,4.4,7.8c1.6,5,0.5,8.9,0.5,16.8c0,7.8-2.2,6.1-6.6,14c-4.4,7.8-6,29-10.4,39.1c-4.4,10-18,23.5-21.3,38.5
	c-3.3,15.1,32.8,21.2,52,17.3c19.1-3.9,27.3-27.9,27.3-31.3c0-3.4,12.6-3.9,16.4-11.7c3.8-7.8-2.2-30.2-5.5-40.2
	c-3.3-10.1-2.2-40.2-7.7-48.6c-5.5-8.4,1.1-33.5,4.4-35.7c3.3-2.2,5.5-10.6,4.9-19c-0.5-8.4,4.9-7.3,6.6-25.7
	c1.6-18.4-20.2-8.9-20.2-8.9s-0.5-21.2-6.6-45.2c-6-24-9.3-46.3-10.4-62.5c-1.1-16.2,7.7-23.4,7.1-28.5c-0.5-5,3.8-25.1,7.1-34.6
	c3.3-9.5,3.3-43.5,3.3-43.5l3.8-0.6c0,0,4.9,11.7,15.3,35.2c10.4,23.5,23.5,57.5,30.1,73.7c6.6,16.2,14.2,56.4,23,79.3
	c8.7,22.9,27.9,62,30.1,64.8c2.2,2.8,0,6.7-6.6,13.4c-6.6,6.7,3.3,14.5,15.9,20.7c12.6,6.1,7.7,1.7,9.8,9.5
	c2.2,7.8,9.3,11.2,21.9,11.2c12.6,0,3.3,18.4,1.1,18.4c-2.2,0-14.2,7.3-18.6,12.8c-4.4,5.6,1.6,17.9-1.1,24
	c-2.7,6.2,1.6,11.2,1.1,17.3c-0.5,6.1-15.9,12.8-24.1,27.9c-8.2,15.1,15.9,22.9,42.1,20.1c26.3-2.8,33.4,2.8,38.3-5
	c4.9-7.8,24.6-18.4,31.2-27.9c6.6-9.5,8.2-17.3,2.2-27.4c-6-10.1-14.8-41.3-18.6-52.5c-3.8-11.2-3.3-6.7,3.8-21.8
	c7.1-15.1,9.3-19,9.3-28.5c0-9.5-7.7-37.4-15.3-43c-7.7-5.6-9.3-29-21.3-48c-12-19-12-27.4-19.7-48.6c-7.7-21.2-1.1-44.7,3.3-72.6
	c4.4-27.9-6.6-75.9-12.6-105c-6-29,4.4-58.6,6.6-71.5c2.2-12.8,6-29,6-35.2c0-6.1-2.2-24.6,2.2-84.9c4.4-60.3,5.5-73.1-3.3-86.5
	c-3.9-6-4.9-19.6-4.7-32.6c0.2,0.3,0.3,0.5,0.5,0.8c13.9,22.6,28.5,42.7,36.7,53c8.2,10.3,19.6,20.7,19.6,20.7s-11.4,9.7-11.4,40.7
	c0,31-12.7,99.5,0.6,150c13.3,50.4,24.7,102.8,30.4,137.7c5.7,34.9,1.9,51.7,1.9,57.5c0,5.8,4.4,12.9-0.6,37.5
	c-5.1,24.6-12.7,54.3-1.3,86.6c11.4,32.3,17.1,77.6,20.9,97.6c3.8,20-2.5,41.4-1.3,51.7c1.3,10.3-4.4,22.6-12.7,30.4
	c-8.2,7.8-17.7,20-10.8,22.6c7,2.6,11.4,3.2,11.4,3.2l14.6,4.5c0,0,8.9-3.2,11.4,2.6c2.5,5.8,10.8,0.6,12.7-2.6
	c1.9-3.2,14.6-1.9,14.6-19.4c0-17.5,5.7-38.1,1.3-61.4c-4.4-23.3-4.4-84.7-1.9-93.1c2.5-8.4,2.5-54.9,1.3-81.5
	c-1.3-26.5,7-57.5,7-111.2c0-53.6-4.4-112.5-4.4-125.4c0-12.9,6.3-20.7,6.3-20.7s7,37.5,13.3,62.1c6.3,24.6,13.9,88.5,12,122.2
	c-1.9,33.6-1.3,58.2,0,89.2c1.3,31,1.3,37.5-5.7,47.2c-7,9.7-0.6,14.9,0,30.4c0.6,15.5-5.7,51.1-5.1,65.3
	c0.6,14.2,2.5,25.2,5.1,37.5c2.5,12.3,12,13.6,12.7,11c0.6-2.6,7-4.5,9.5-3.9c2.5,0.6,7.6-5.8,7.6-5.8s5.7-6.5,9.5-12.9
	c3.8-6.5,5.7-8.4,5.7-22c0-13.6-5.7-60.1-7-74.3c-1.3-14.2,0-20.7,0-29.1c0-3,1.8-9.7,4.2-17.3c3.1,26.1,9.7,52.5,9.2,66.5
	c-0.6,16.7-3.5,9-5.3,19.1c-1.8,10.2,4.1,28.1,8.2,33.5c4.1,5.4,9.4,2.4,11.1,7.2c1.8,4.8-6.4,13.7-7,20.3
	c-0.6,6.6,0,17.9,20.5,28.7c20.5,10.8,21.7,16.1,34.6,27.5c12.9,11.4,45.1,19.7,68.5,13.2c23.4-6.6,17.6-17.3,10-24.5
	c-7.6-7.2-18.2-10.2-18.2-17.3c0-7.2-0.6-4.2-8.8-4.8c-8.2-0.6-34-25.7-34-25.7l0.6-1.2c-1.2-5.4,14.6,2.4,27,10.8
	c12.3,8.4,17,2.4,39.8,10.8c22.8,8.4,35.7,6.6,49.8-1.2c14.1-7.8,8.8-22.1-17-32.3c-25.8-10.2-49.2-17.3-49.2-17.3l-13.5-15.5
	c0,0,11.1-12.6,11.7-25.1c0.6-12.5-10.5-22.7-15.8-24.5c-5.3-1.8,2.3-49.6,11.1-77.7c8.8-28.1,11.7-41.2,8.2-53.2
	c-3.5-12,1.8-14.4,4.7-17.3c2.9-3,2.9-3,1.8-8.4c-1.2-5.4,0-14.9,4.7-19.7c4.7-4.8,8.8-9,4.1-19.1c-4.7-10.2,4.7-11.4,4.7-16.1
	c0-4.8,5.9-17.3,11.1-25.7c5.3-8.4,11.1-22.1,25.8-55.6c14.6-33.5,24.6-76.5,25.2-84.3c0.6-7.8,4.1-9,7.6-14.3
	c3.4-5.2,3.5-11.9,5.1-16.2c0.6,2.3,1.9,9.3-0.2,18.7c-2.6,11.6,7,32.1,12.2,41c5.2,8.9,24.5-8.9,24.5-16.1c0-7.1,6.1-6.2,6.1-6.2
	l-7.9,52.6l46.4,8c0,0,8.7,61.6,9.6,83c0.9,21.4-0.9,96.4,0,146.3c0.9,50,24.5,103.5,35,134.7c10.5,31.2-6.1,58.9-15.7,74.1
	c-9.6,15.2-14.9,15.2-6.1,31.2c8.7,16.1,59.5,0,59.5,0s4.4,1.8,5.2,7.1c0.9,5.4,35,3.6,54.2-0.9c19.2-4.5,10.5-20.5,10.5-35.7
	c0-15.2-5.2-30.3-7-40.2c-1.7-9.8,1.8-30.3,1.8-30.3s35.8-85.7,42-134.7c5.8-46.2,1.4-135.2,1.7-161c7.2,4.4,13.6,5,28.6,11.8
	c20.4,9.3,21.2,0.8,21.2,0.8s0,15.4,3,20.1c3,4.6-3,49.4-6.1,63.3c-3,13.9-18.9,27.8-22.7,36.3c-3.8,8.5-11.4,79.5-12.1,109.6
	c-0.8,30.1-8.3,61-8.3,80.3c0,19.3-4.5,15.4-6,21.6c-1.5,6.2,9.1,25.5,27.2,49.4c18.1,23.9,55.2,10.8,59.7-5.4
	c4.5-16.2-24.2-43.2-26.5-56.4c-2.3-13.1-1.5-4.6,0-13.1c1.5-8.5-0.8-7.7-6.1-13.1c-5.3-5.4,27.2-111.1,30.2-127.3
	c3-16.2,13.6-43.2,20.4-53.3c6.8-10,22.7-69.5,22.7-69.5s6.8-1.5,6.8-11.6c0-10,6.8-57.1,6.8-57.1l3.8-10l18.2,0.8
	c0,0,0,11.6-0.8,41.7c-0.8,30.1,3,48.6,9.1,70.2c6.1,21.6,5.3,28.6,2.3,42.4c-3,13.9,1.5,64.8,1.5,97.2c0,32.4-1.5,74.9-1.5,87.2
	c0,12.3,3,36.3,5.3,64.8c2.3,28.6,38.6,25.5,52.9,13.9c14.4-11.6-2.3-54-10.6-64.1c-8.3-10-7.6-29.3-5.3-49.4
	c2.3-20.1,25-119.6,26.5-131.2c1.5-11.6-1.5-20.8-6.1-46.3c-4.5-25.5-4.5-51.7-3-59.4c1.5-7.7,12.1-9.3,8.3-18.5
	c-3.8-9.3,7.6-20.1,9.1-33.2c1.5-13.1-6.8-5.4-3-14.7c3.8-9.3,21.9-6.9,34-10.8c12.1-3.9,6.8-4.6,7.6-9.3
	c0.8-4.6-10.6-30.1-10.6-30.1l6.2-16.1c3.8,3.3,8.8,5.3,10.5,10.3c3.1,9.5-6.8,22.7-6.8,22.7l20.4,10.7c0,0,0.6,8.8,3.1,30.2
	c2.5,21.4,7.4,76.9,4.9,114c-2.5,37.2,11.7,69.9,9.9,85.1c-1.9,15.1-0.6,68.7-3.1,85.1c-2.5,16.4-16.1,37.2-24.1,53.6
	c-8,16.4-22.8,41.6-29,67.4c-6.2,25.8,37.6,13.2,46.9,6.3c9.3-6.9,16-23.3,14.2-31.5c-1.9-8.2,13.6-35.9,13.6-35.9
	c1.2-5.7,9.3-0.6,10.5,6.3c1.2,6.9,0,8.8-4.3,28.4c-4.3,19.5,24.1,25.8,43.8,27.7c19.7,1.9,9.2-45.4,3.7-59.9
	c-5.6-14.5,0-29-4.3-36.6c-4.3-7.6-8.6-16.4-16.7-38.4c-8-22-0.6-20.8,0-35.9c0.6-15.1,3.1-23.9,11.1-48.5
	c8-24.6,10.5-56.7,8.6-74.3c-1.9-17.6,4.9-37.8,6.8-46c1.9-8.2,25.3-62.4,30.9-71.8c1.7-2.9,3.6-6,5.6-8.8c0,0.6,0,1.2,0,1.8v66.7
	l11.7,2.2c0,0,2.9,21.7,5.9,31.5c2.9,9.7,2.2,38.2,2.2,54.7c0,16.5-7.3,27.7-3.7,68.2c3.7,40.5,19.1,83.1,19.8,95.9
	c0.7,12.7,7.3,24,7.3,40.5s-1.5,34.4,4.4,59.9c5.9,25.5,45.5,7.5,46.2,0.8c0,9,39.6,14.2,41.1-1.5c0.4-4.7,1.1-10.1,1.8-15.7
	c0,1.1,0,2.2,0.1,3.3c0.9,19.4,12.4,13.5,27.9,23c15.5,9.5,21.2-3.2,20.8-14.9c-0.4-11.7-4.9-28-6.2-39.3
	c-1.3-11.3,2.7-2.7,4.9-10.4c2.2-7.7,1.3-27.5,1.3-27.5s13.7-3.2,9.3-8.6c-4.4-5.4,0.4-9,1.8-23.9c1.3-14.9,15-44.2,19-60.9
	c4-16.7,22.1-42,27.9-73.6c5.8-31.6,10.2-37,15-69.1c4.9-32,11.5-59.6,13.3-58.2c1.8,1.4,8.4,69.5,7.5,84.4
	c-0.9,14.9-1.8,50.6,0.4,72.2c2.2,21.7,2.2,65.5,2.2,78.1c0,12.6,3.1,37.5,2.2,58.7c-0.9,21.2,0,17.2,0,22.6c0,5.4,0.9,8.6,5.3,20.3
	c4.4,11.7-0.4,27.5-0.4,27.5s12.4,2.3,22.1,11.3c9.7,9,19.5,14.5,42,10.8c3.1-0.5,5.2-1.4,6.5-2.6c9.1-0.5,21.2-7.2,24.6-13.3
	c5.4-9.6-1.8-29.2-1.8-29.2h8.9c0,0-3.6-15.5-3.1-36.9c0.4-21.4-19.6-23.7-19.6-23.7s3.1-26.9,7.6-38.3c4.5-11.4,4.9-24.2,6.7-30.5
	c1.8-6.4-1.8-33.7-1.8-33.7s11.6-5.9,11.6-14.1c0-8.2,5.4-39.2,7.1-55.1c1.8-16,2.2-26.9,7.6-40.6c5.4-13.7,8.5-12.3,8.5-12.3
	s-0.4-9.6,0.9-19.1c1.3-9.6,8.9-37.8,11.2-40.1c2.2-2.3,1.3,1.4,3.6,7.3c2.2,5.9,6.3,57.4,8,101.6c7.6,41.5-0.4,55.6-0.4,55.6
	l12.1,4.1c0,0,1.3,20.1,1.3,39.2c0,19.1,2.2,34.6,6.7,51.5c4.5,16.9,2.2,31-2.2,41.9c-4.5,10.9-3.6,11.4-6.7,15.5
	c-3.1,4.1-1.3,9.1-2.7,22.3c-1.3,13.2-12.1,26.9-11.6,42.8c0.4,16,11.2,13.2,29.5,4.1c18.3-9.1,13.4-21,14.7-36.9
	c1.3-16,2.7-23.7,1.8-33.7c-0.9-10,1.8-20,2.2-40.5c3.1-20.5,12.5-77.5,12.5-77.5l5.3-2.3l-1.8-32.4l10.3-0.9c0,0-2.2-51.5-0.5-75.2
	c1.8-23.7,3.6-51.5,4-64.3c0.4-12.8-2.2-39.7-7.2-48.3c-4.9-8.7-6.3-33.3,1.3-44.7c7.6-11.4-8-19.1-9.4-25.1
	c-1.3-5.9-4.5-13.2,2.7-16.4c7.1-3.2,3.6-8.2,3.6-11.4C2631.7,698.7,2634.8,699.1,2634.8,699.1L2634.8,699.1z M311.4,587.2
	c-2.4,30.3-5.1,52.1-10.3,61c-5.1,8.9-5.6,13.3-4.8,22.2c0.8,8.9-3.2,29.5-3.2,29.5s0.8,36,0,31.5c-0.8-4.4-10.3-20.6-10.3-20.6
	l0.4-9.7l-3.2-2c0,0-3.2-5.7-3.2-19.4c0-13.7,10.3-72.8,16.6-100.2c6.3-27.5,11.1-65.5,11.1-65.5s3.6,6.9,4.8,9.3
	C310.6,525.8,313.8,556.9,311.4,587.2L311.4,587.2z M475.4,494.7c0.4-12.9,4.4-8.5,11.9-29.1c0.7-2,1.1-3.8,1.4-5.7
	c-1.6,17.5-4,36.3-7.4,50.9c-1.3,5.7-2.3,11.2-3,16.5C476.3,514.6,475.2,502.6,475.4,494.7L475.4,494.7z M941.5,630.6
	c-6.1,3.9-12.3,1.6-13-24.3c-0.8-25.8-6.9-101-6.9-140.1c0-39.1,3.1-61.8,3.1-61.8s6.9,15.7,6.9,57.1s0,78.3,3.1,94.7
	C937.7,572.6,947.7,626.6,941.5,630.6L941.5,630.6z M1010.6,399.8c-3.8-1.3-5.7-6.5-2.5-12.9c3.2-6.5,9.5-40.7,13.3-36.2
	c0,0,4.4,33,7,47.8c2.5,14.9,3.2,26.5,3.2,26.5S1014.4,401,1010.6,399.8L1010.6,399.8z M1225.5,415.5c-5.3,47.4-15.9,61.8-15.9,61.8
	s4.9-62.4,10.4-96.8c2.3-8.5,4.6-14.5,6.4-16C1227.7,371,1228.9,385.4,1225.5,415.5L1225.5,415.5z M1445.1,685.3
	c-10.5,3.6-7.9-8.9,0-30.3C1445.1,655,1455.6,681.8,1445.1,685.3z M1467,619.3c0,0-1.7-15.2,0-30.3c1.7-15.2,8.7-20.5,10.5-5.4
	C1479.2,598.8,1474,622,1467,619.3L1467,619.3z M1614.7,930.7c-1.7,41.9-8.7,99.1-8.7,119.6c0,20.5-5.2,49.1-5.2,49.1
	s-7,61.6-13.1,50.9c-6.1-10.7-8.7-57.1-8.7-91.9c0-34.8,1.8-102.6,0-115.1c-1.7-12.5-9.6-32.1-2.6-68.7c7-36.6,3.5-92.8,3.5-101.7
	c0-8.9,5.2-32.1,5.2-32.1h22.7c0,0,2.6,83,2.6,100.8C1610.4,859.3,1616.5,888.8,1614.7,930.7L1614.7,930.7z M1721.9,399.6
	c-2.4,22.6-5.2,48.5-9.6,69.6c-1.7-44.1-7.5-114.1-7.5-114.1S1713,376.6,1721.9,399.6L1721.9,399.6z M1722.7,618.3
	c-2.4,4-5.2,8.9-8.2,14.3c0-0.9-0.1-1.7-0.1-2.6c-1.4-37.7-1.1-84.8-1.4-123.7c9.2,19.9,31.6,28.6,31.6,28.6
	S1733.3,600.5,1722.7,618.3L1722.7,618.3z M1989.7,545.8c2.5,6,0,12.8-1.7,17.1c-1.7,4.3-5,22.2-5,22.2h-7.5c0,0,9.2-17.1-0.8-27.3
	c0,0-0.1-0.1-0.1-0.1c0.4-15.1,0.7-35.9,0.9-65.2l4.2,2.2C1979.7,494.6,1987.2,539.8,1989.7,545.8L1989.7,545.8z M2171,404.8
	c0,0,2.9,15.7,5.9,21c2.9,5.2,2.2,10.5,2.2,17.2c0,1.5-1.1,3-2.8,4.6c-3.3-11.6-7.3-26.3-12.3-45.4
	C2167.2,404.1,2171,404.8,2171,404.8L2171,404.8z M2038.5,1129.4c0,0-9.9,1.3-6.8-14.5c3.1-15.7,6.2-31.5,6.2-31.5
	S2045.3,1123.8,2038.5,1129.4L2038.5,1129.4z M2239.1,1099.4c-1.2,6.4-6.2,15.3-6.2,28.6c0,13.3-6.2,8.3-6.8,22.2
	c-0.6,14-7.5,40.7-7.5,43.8c0,3.2-3.7,13.3-4.4,1.3c-0.6-12.1-7.5-31.1-7.5-35.6c0-4.4,0-6.4-5-21c-5-14.6-16.8-32.4-13.1-57.2
	c3.7-24.8,1.9-47,1.2-94c-0.6-47,7.5-61,7.5-75.6c0-14.6,1.9-59.7,1.9-59.7l24.3-0.6c0,0-3.1,50.2,4.4,68.6c7.5,18.4,5,29.2,5,39.4
	c0,10.2-1.2,58.5-0.6,73.7C2232.9,1048.6,2240.4,1093.1,2239.1,1099.4L2239.1,1099.4z M2262.6,622.6c0.7-8.4,9-16.1,9-32.9
	c0-16.8,0-50.5,10.5-51.2c0,0,2.5,2.4,6.3,6.3c-0.3,0.7-0.6,1.3-0.8,2c-11.9,28.4-16.4,51.5-16.4,51.5l15.5,5c0,0,1.8,34.3,1.8,49.7
	c0,6.6-1.1,15.7-2.3,26.3C2274.3,674.8,2261.9,630.3,2262.6,622.6L2262.6,622.6z M2306.5,958.5c-3.5,23.5-22.1,88.9-28.3,104.7
	c-6.2,15.8-5.3,39.7-4.4,42.9c0.9,3.2-1.8,5-1.8,5s-3.1,7.2-3.5,9.9c-0.4,2.7-1.8,19-1.3,27.1c0.4,8.1,4,12.7,1.8,14.9
	c-1.1,1.1-2.8,3.7-4.1,8.4c0.5-7.7,0.5-15.1-0.7-21.4c-2.9-15.7-0.7-39-0.7-39s4.4-54.7,15.4-78.7c11-24,0.7-83.1-1.5-91.4
	c-2.2-8.2,4.4-87.6,4.4-87.6l2.8-1.4c1,1.9,2.2,3.6,3.3,5.3c8.4,12.2,15.9,6.3,15.9,6.3S2310.1,935,2306.5,958.5L2306.5,958.5z
	 M2304.3,789.2c-0.4-29.3,6.6-65.5,6.6-65.5S2317.2,793.7,2304.3,789.2z M2472.5,619.8c1.3,13.7,2.1,28.5,2.5,42.7
	C2469.9,647.5,2466.3,636.7,2472.5,619.8z M2465.7,939.6c-1,12.4-2,22.7-2.3,25.2c-0.3,2.3-0.7,3.6-1.3,4.5c0.1-0.5,0.1-1.1,0.2-1.8
	C2462.8,963.1,2464,952.4,2465.7,939.6L2465.7,939.6z M2465.8,1180.1c-6.6-7.2-11.5-16.3-10.6-18.1c0.9-1.8-0.9-24.8-1.8-38.4
	c-0.9-13.5,4.9-40.2,8.4-56.4c1.2-5.3,1.7-13.4,1.9-22.5c0,1.3,0.1,2.5,0.1,3.4c0,11.4,7.6,82.9,7.6,89.3c0,6.4,1.3,28.3,6.7,41.9
	c2.5,6.4,1.5,9.8,0,13C2473.3,1187.3,2468.1,1182.7,2465.8,1180.1L2465.8,1180.1z"/>
</svg>
